name Walk3.mot
datacolumns 19
datarows 20
range 2.84000000 2.93500000
endheader

                time	   L_ground_force_vx	   L_ground_force_vy	   L_ground_force_vz	   L_ground_force_px	   L_ground_force_py	   L_ground_force_pz	   R_ground_force_vx	   R_ground_force_vy	   R_ground_force_vz	   R_ground_force_px	   R_ground_force_py	   R_ground_force_pz	   L_ground_torque_x	   L_ground_torque_y	   L_ground_torque_z	   R_ground_torque_x	   R_ground_torque_y	   R_ground_torque_z	
          2.84000000	          0.06362882	          0.17262025	         -0.00273673	         -0.00028105	          0.00000000	         -0.00012781	        -13.22302953	        770.65632193	        -58.85134081	          0.25249318	          0.00000000	          0.12084522	          0.00000000	          0.00020353	          0.00000000	          0.00000000	          7.44526034	          0.00000000	
          2.84500000	          0.04688514	          0.12204499	         -0.00347950	         -0.00024864	          0.00000000	         -0.00011398	        -12.07784939	        765.88059911	        -57.86921335	          0.25402388	          0.00000000	          0.12129363	          0.00000000	          0.00012835	          0.00000000	          0.00000000	          7.14612598	          0.00000000	
          2.85000000	          0.03243969	          0.07995977	         -0.00368064	         -0.00020820	          0.00000000	         -0.00009609	        -10.97555695	        760.98481819	        -57.08164819	          0.25557367	          0.00000000	          0.12175508	          0.00000000	          0.00006999	          0.00000000	          0.00000000	          6.86472743	          0.00000000	
          2.85500000	          0.02061052	          0.04664748	         -0.00351854	         -0.00016580	          0.00000000	         -0.00007703	         -9.91585193	        755.98791863	        -56.50669816	          0.25714354	          0.00000000	          0.12223211	          0.00000000	          0.00002702	          0.00000000	          0.00000000	          6.60294299	          0.00000000	
          2.86000000	          0.01139466	          0.02159571	         -0.00313631	         -0.00012549	          0.00000000	         -0.00005871	         -8.89352941	        750.93742991	        -56.14197989	          0.25873244	          0.00000000	          0.12272416	          0.00000000	         -0.00000267	          0.00000000	          0.00000000	          6.36149209	          0.00000000	
          2.86500000	          0.00458352	          0.00382253	         -0.00264315	         -0.00008972	          0.00000000	         -0.00004231	         -7.90165361	        745.90154750	        -55.96467788	          0.26033661	          0.00000000	          0.12322717	          0.00000000	         -0.00002149	          0.00000000	          0.00000000	          6.13989588	          0.00000000	
          2.87000000	         -0.00014683	         -0.00787738	         -0.00211785	         -0.00005968	          0.00000000	         -0.00002846	         -6.93340470	        740.96095371	        -55.93551257	          0.26195003	          0.00000000	          0.12373475	          0.00000000	         -0.00003187	          0.00000000	          0.00000000	          5.93678240	          0.00000000	
          2.87500000	         -0.00316870	         -0.01475730	         -0.00161349	         -0.00003570	          0.00000000	         -0.00001732	         -5.98295021	        736.19933959	        -56.00559658	          0.26356564	          0.00000000	          0.12423972	          0.00000000	         -0.00003600	          0.00000000	          0.00000000	          5.75009028	          0.00000000	
          2.88000000	         -0.00485596	         -0.01800214	         -0.00116245	         -0.00001750	          0.00000000	         -0.00000881	         -5.04603000	        731.69656483	        -56.12487075	          0.26517396	          0.00000000	          0.12473590	          0.00000000	         -0.00003580	          0.00000000	          0.00000000	          5.57718821	          0.00000000	
          2.88500000	         -0.00555392	         -0.01865924	         -0.00078127	         -0.00000444	          0.00000000	         -0.00000265	         -4.11851968	        727.52520334	        -56.24974591	          0.26676447	          0.00000000	          0.12521779	          0.00000000	         -0.00003284	          0.00000000	          0.00000000	          5.41530388	          0.00000000	
          2.89000000	         -0.00556226	         -0.01760490	         -0.00047504	          0.00000428	          0.00000000	          0.00000150	         -3.19583522	        723.74677073	        -56.34738155	          0.26832718	          0.00000000	          0.12568050	          0.00000000	         -0.00002835	          0.00000000	          0.00000000	          5.26170593	          0.00000000	
          2.89500000	         -0.00512770	         -0.01553644	         -0.00024109	          0.00000954	          0.00000000	          0.00000405	         -2.27296630	        720.41006990	        -56.39819329	          0.26985502	          0.00000000	          0.12612044	          0.00000000	         -0.00002323	          0.00000000	          0.00000000	          5.11407110	          0.00000000	
          2.90000000	         -0.00444349	         -0.01298123	         -0.00007199	          0.00001215	          0.00000000	          0.00000536	         -1.34521157	        717.55030145	        -56.39696040	          0.27134459	          0.00000000	          0.12653454	          0.00000000	         -0.00001810	          0.00000000	          0.00000000	          4.97095619	          0.00000000	
          2.90500000	         -0.00365329	         -0.01031597	          0.00004214	          0.00001287	          0.00000000	          0.00000578	         -0.40936480	        715.18754322	        -56.35037629	          0.27279582	          0.00000000	          0.12692086	          0.00000000	         -0.00001339	          0.00000000	          0.00000000	          4.83148581	          0.00000000	
          2.91000000	         -0.00285762	         -0.00779092	          0.00011200	          0.00001231	          0.00000000	          0.00000559	          0.53688053	        713.32858252	        -56.27276731	          0.27421187	          0.00000000	          0.12727899	          0.00000000	         -0.00000930	          0.00000000	          0.00000000	          4.69514243	          0.00000000	
          2.91500000	         -0.00212137	         -0.00555549	          0.00014794	          0.00001098	          0.00000000	          0.00000503	          1.49533606	        711.96990872	        -56.18150755	          0.27559795	          0.00000000	          0.12761006	          0.00000000	         -0.00000595	          0.00000000	          0.00000000	          4.56157182	          0.00000000	
          2.92000000	         -0.00148145	         -0.00368257	          0.00015929	          0.00000926	          0.00000000	          0.00000427	          2.46671818	        711.10039116	        -56.09432456	          0.27696004	          0.00000000	          0.12791620	          0.00000000	         -0.00000333	          0.00000000	          0.00000000	          4.43040300	          0.00000000	
          2.92500000	         -0.00095392	         -0.00219026	          0.00015397	          0.00000742	          0.00000000	          0.00000344	          3.45006959	        710.70608557	        -56.02711628	          0.27830385	          0.00000000	          0.12819997	          0.00000000	         -0.00000138	          0.00000000	          0.00000000	          4.30089230	          0.00000000	
          2.93000000	         -0.00054018	         -0.00106005	          0.00013838	          0.00000566	          0.00000000	          0.00000264	          4.44505514	        710.77542984	        -55.99212251	          0.27963445	          0.00000000	          0.12846525	          0.00000000	         -0.00000003	          0.00000000	          0.00000000	          4.17200688	          0.00000000	
          2.93500000	         -0.00023213	         -0.00025143	          0.00011744	          0.00000408	          0.00000000	          0.00000192	          5.45254427	        711.30153227	        -55.99934570	          0.28095639	          0.00000000	          0.12871743	          0.00000000	          0.00000085	          0.00000000	          0.00000000	          4.04283812	          0.00000000	
